{"accessors": [{"bufferView": 0, "componentType": 5126, "count": 221830, "type": "VEC3", "max": [2.896721, 3.211629, 2.057434], "min": [-3.222323, -4.533185, -0.117333]}, {"bufferView": 1, "componentType": 5126, "count": 221830, "type": "VEC3", "max": [1.0, 0.9999984423130943, 0.999999999921892], "min": [-1.0, -0.9999997967613553, -0.999999999921892]}, {"bufferView": 2, "componentType": 5126, "count": 221830, "type": "VEC4", "max": [1.0, 1.0, 1.0, 1.0], "min": [0.0, 0.0, 0.0, 1.0]}, {"bufferView": 3, "componentType": 5125, "count": 1269981, "type": "SCALAR"}], "asset": {"version": "2.0"}, "buffers": [{"uri": "vertices.bin", "byteLength": 2661960}, {"uri": "normals.bin", "byteLength": 2661960}, {"uri": "colors.bin", "byteLength": 3549280}, {"uri": "indices.bin", "byteLength": 5079924}], "bufferViews": [{"buffer": 0, "byteOffset": 0, "byteLength": 2661960, "target": 34962}, {"buffer": 1, "byteOffset": 0, "byteLength": 2661960, "target": 34962}, {"buffer": 2, "byteOffset": 0, "byteLength": 3549280, "target": 34962}, {"buffer": 3, "byteOffset": 0, "byteLength": 5079924, "target": 34963}], "meshes": [{"primitives": [{"attributes": {"POSITION": 0, "NORMAL": 1, "COLOR_0": 2}, "indices": 3, "mode": 4}]}], "nodes": [{"mesh": 0}], "scenes": [{"nodes": [0]}]}