{"accessors": [{"bufferView": 0, "componentType": 5126, "count": 215317, "type": "VEC3", "max": [2.02205, 2.843145, 2.694912], "min": [-2.115167, -2.555962, -0.127943]}, {"bufferView": 1, "componentType": 5126, "count": 215317, "type": "VEC3", "max": [1.0, 0.9999999353427294, 1.0], "min": [-1.0, -0.9999998154574278, -1.0]}, {"bufferView": 2, "componentType": 5126, "count": 215317, "type": "VEC4", "max": [1.0, 1.0, 1.0, 1.0], "min": [0.0, 0.0, 0.0, 1.0]}, {"bufferView": 3, "componentType": 5125, "count": 1255743, "type": "SCALAR"}], "asset": {"version": "2.0"}, "buffers": [{"uri": "vertices.bin", "byteLength": 2583804}, {"uri": "normals.bin", "byteLength": 2583804}, {"uri": "colors.bin", "byteLength": 3445072}, {"uri": "indices.bin", "byteLength": 5022972}], "bufferViews": [{"buffer": 0, "byteOffset": 0, "byteLength": 2583804, "target": 34962}, {"buffer": 1, "byteOffset": 0, "byteLength": 2583804, "target": 34962}, {"buffer": 2, "byteOffset": 0, "byteLength": 3445072, "target": 34962}, {"buffer": 3, "byteOffset": 0, "byteLength": 5022972, "target": 34963}], "meshes": [{"primitives": [{"attributes": {"POSITION": 0, "NORMAL": 1, "COLOR_0": 2}, "indices": 3, "mode": 4}]}], "nodes": [{"mesh": 0}], "scenes": [{"nodes": [0]}]}