{
  "accessors": [
    {
      "bufferView": 0,
      "byteOffset": 0,
      "componentType": 5125,
      "normalized": false,
      "count": 1355715,
      "type": "SCALAR"
    },
    {
      "bufferView": 1,
      "byteOffset": 0,
      "componentType": 5126,
      "normalized": false,
      "count": 237352,
      "type": "VEC3",
      "max": [
        2.8034909,
        3.7972307,
        2.5388131
      ],
      "min": [
        -3.4594977,
        -4.670949,
        -0.0817043
      ]
    },
    {
      "bufferView": 2,
      "byteOffset": 0,
      "componentType": 5126,
      "normalized": false,
      "count": 237352,
      "type": "VEC3"
    },
    {
      "bufferView": 3,
      "byteOffset": 0,
      "componentType": 5126,
      "normalized": false,
      "count": 237352,
      "type": "VEC3"
    }
  ],
  "asset": {
    "generator": "OBJwVC_to_glTF",
    "copyright": "Tomoaki Osada (ynyBonfennil)",
    "version": "2.0"
  },
  "bufferViews": [
    {
      "buffer": 0,
      "byteOffset": 0,
      "byteLength": 5422860,
      "target": 34963
    },
    {
      "buffer": 0,
      "byteOffset": 5422860,
      "byteLength": 2848224,
      "target": 34962
    },
    {
      "buffer": 0,
      "byteOffset": 8271084,
      "byteLength": 2848224,
      "target": 34962
    },
    {
      "buffer": 0,
      "byteOffset": 11119308,
      "byteLength": 2848224,
      "target": 34962
    }
  ],
  "buffers": [
    {
      "uri": "output.gltf.bin",
      "byteLength": 13967532
    }
  ],
  "materials": [
    {
      "pbrMetallicRoughness": {
        "baseColorFactor": [
          1.0,
          1.0,
          1.0,
          1.0
        ],
        "metallicFactor": 0.0,
        "roughnessFactor": 0.5
      },
      "emissiveFactor": [
        0.0,
        0.0,
        0.0
      ],
      "alphaMode": "OPAQUE",
      "alphaCutoff": 0.5,
      "doubleSided": false,
      "name": "material 001-effect"
    }
  ],
  "meshes": [
    {
      "primitives": [
        {
          "attributes": {
            "POSITION": 1,
            "NORMAL": 3,
            "COLOR_0": 2
          },
          "indices": 0,
          "mode": 4,
          "material": 0
        }
      ],
      "name": "Mesh"
    }
  ],
  "nodes": [
    {
      "mesh": 0,
      "name": "Mesh"
    }
  ],
  "scene": 0,
  "scenes": [
    {
      "nodes": [
        0
      ]
    }
  ]
}