{"accessors": [{"bufferView": 0, "componentType": 5126, "count": 178136, "type": "VEC3", "max": [1.800061, 2.584094, 2.469065], "min": [-1.611367, -2.960156, -0.051349]}, {"bufferView": 1, "componentType": 5126, "count": 178136, "type": "VEC3", "max": [1.0, 0.9999998051838509, 1.0], "min": [-1.0, -0.9999999018520247, -1.0]}, {"bufferView": 2, "componentType": 5126, "count": 178136, "type": "VEC4", "max": [1.0, 1.0, 1.0, 1.0], "min": [0.0, 0.0, 0.0, 1.0]}, {"bufferView": 3, "componentType": 5125, "count": 1020828, "type": "SCALAR"}], "asset": {"version": "2.0"}, "buffers": [{"uri": "vertices.bin", "byteLength": 2137632}, {"uri": "normals.bin", "byteLength": 2137632}, {"uri": "colors.bin", "byteLength": 2850176}, {"uri": "indices.bin", "byteLength": 4083312}], "bufferViews": [{"buffer": 0, "byteOffset": 0, "byteLength": 2137632, "target": 34962}, {"buffer": 1, "byteOffset": 0, "byteLength": 2137632, "target": 34962}, {"buffer": 2, "byteOffset": 0, "byteLength": 2850176, "target": 34962}, {"buffer": 3, "byteOffset": 0, "byteLength": 4083312, "target": 34963}], "meshes": [{"primitives": [{"attributes": {"POSITION": 0, "NORMAL": 1, "COLOR_0": 2}, "indices": 3, "mode": 4}]}], "nodes": [{"mesh": 0}], "scenes": [{"nodes": [0]}]}