{"accessors": [{"bufferView": 0, "componentType": 5126, "count": 299027, "type": "VEC3", "max": [3.22136, 3.098925, 2.473614], "min": [-2.560434, -3.101024, -0.054331]}, {"bufferView": 1, "componentType": 5126, "count": 299027, "type": "VEC3", "max": [1.0, 0.9999998615460055, 1.0], "min": [-1.0, -0.9999999094481902, -1.0]}, {"bufferView": 2, "componentType": 5126, "count": 299027, "type": "VEC4", "max": [1.0, 1.0, 1.0, 1.0], "min": [0.0, 0.0, 0.0, 1.0]}, {"bufferView": 3, "componentType": 5125, "count": 1721025, "type": "SCALAR"}], "asset": {"version": "2.0"}, "buffers": [{"uri": "vertices.bin", "byteLength": 3588324}, {"uri": "normals.bin", "byteLength": 3588324}, {"uri": "colors.bin", "byteLength": 4784432}, {"uri": "indices.bin", "byteLength": 6884100}], "bufferViews": [{"buffer": 0, "byteOffset": 0, "byteLength": 3588324, "target": 34962}, {"buffer": 1, "byteOffset": 0, "byteLength": 3588324, "target": 34962}, {"buffer": 2, "byteOffset": 0, "byteLength": 4784432, "target": 34962}, {"buffer": 3, "byteOffset": 0, "byteLength": 6884100, "target": 34963}], "meshes": [{"primitives": [{"attributes": {"POSITION": 0, "NORMAL": 1, "COLOR_0": 2}, "indices": 3, "mode": 4}]}], "nodes": [{"mesh": 0}], "scenes": [{"nodes": [0]}]}