{
    "accessors": [
        {
            "bufferView": 0,
            "componentType": 5126,
            "count": 237352,
            "type": "VEC3",
            "max": [
                2.8034909,
                3.7972307,
                2.5388131
            ],
            "min": [
                -3.4594977,
                -4.670949,
                -0.0817043
            ]
        },
        {
            "bufferView": 1,
            "componentType": 5126,
            "count": 237352,
            "type": "VEC3",
            "max": [
                0.9999985551998981,
                0.9999991821125225,
                0.9999999912377993
            ],
            "min": [
                -0.9999995372705406,
                -0.9999996139009688,
                -0.9999994433055005
            ]
        },
        {
            "bufferView": 2,
            "componentType": 5126,
            "count": 237352,
            "type": "VEC4",
            "max": [
                1,
                1,
                1,
                1
            ],
            "min": [
                0.01568627450980392,
                0.01568627450980392,
                0.00784313725490196,
                1
            ]
        },
        {
            "bufferView": 3,
            "componentType": 5125,
            "count": 1355715,
            "type": "SCALAR"
        }
    ],
    "asset": {
        "version": "2.0"
    },
    "buffers": [
        {
            "uri": "vertices.bin",
            "byteLength": 2848224
        },
        {
            "uri": "normals.bin",
            "byteLength": 2848224
        },
        {
            "uri": "colors.bin",
            "byteLength": 3797632
        },
        {
            "uri": "indices.bin",
            "byteLength": 5422860
        }
    ],
    "bufferViews": [
        {
            "buffer": 0,
            "byteOffset": 0,
            "byteLength": 2848224,
            "target": 34962
        },
        {
            "buffer": 1,
            "byteOffset": 0,
            "byteLength": 2848224,
            "target": 34962
        },
        {
            "buffer": 2,
            "byteOffset": 0,
            "byteLength": 3797632,
            "target": 34962
        },
        {
            "buffer": 3,
            "byteOffset": 0,
            "byteLength": 5422860,
            "target": 34963
        }
    ],
    "meshes": [
        {
            "primitives": [
                {
                    "attributes": {
                        "POSITION": 0,
                        "NORMAL": 1,
                        "COLOR_0": 2
                    },
                    "indices": 3,
                    "mode": 4
                }
            ]
        }
    ],
    "nodes": [
        {
            "mesh": 0
        }
    ],
    "scenes": [
        {
            "nodes": [
                0
            ]
        }
    ]
}