{"accessors": [{"bufferView": 0, "componentType": 5126, "count": 130791, "type": "VEC3", "max": [1.881288, 1.682618, 2.384375], "min": [-2.610349, -1.838007, -0.055982]}, {"bufferView": 1, "componentType": 5126, "count": 130791, "type": "VEC3", "max": [1.0, 0.9999985835320185, 1.0], "min": [-1.0, -0.9999970457903893, -1.0]}, {"bufferView": 2, "componentType": 5126, "count": 130791, "type": "VEC4", "max": [1.0, 1.0, 1.0, 1.0], "min": [0.0, 0.0, 0.0, 1.0]}, {"bufferView": 3, "componentType": 5125, "count": 752640, "type": "SCALAR"}], "asset": {"version": "2.0"}, "buffers": [{"uri": "vertices.bin", "byteLength": 1569492}, {"uri": "normals.bin", "byteLength": 1569492}, {"uri": "colors.bin", "byteLength": 2092656}, {"uri": "indices.bin", "byteLength": 3010560}], "bufferViews": [{"buffer": 0, "byteOffset": 0, "byteLength": 1569492, "target": 34962}, {"buffer": 1, "byteOffset": 0, "byteLength": 1569492, "target": 34962}, {"buffer": 2, "byteOffset": 0, "byteLength": 2092656, "target": 34962}, {"buffer": 3, "byteOffset": 0, "byteLength": 3010560, "target": 34963}], "meshes": [{"primitives": [{"attributes": {"POSITION": 0, "NORMAL": 1, "COLOR_0": 2}, "indices": 3, "mode": 4}]}], "nodes": [{"mesh": 0}], "scenes": [{"nodes": [0]}]}